<?xml version="1.0" standalone="no"?><!DOCTYPE svg PUBLIC "-//W3C//DTD SVG 1.1//EN" "http://www.w3.org/Graphics/SVG/1.1/DTD/svg11.dtd"><svg t="1663654057575" class="icon" viewBox="0 0 1024 1024" version="1.1" xmlns="http://www.w3.org/2000/svg" p-id="53579" xmlns:xlink="http://www.w3.org/1999/xlink" width="200" height="200"><path d="M887.168 792.704h-223.168a35.84 35.84 0 0 1 0-71.552h223.168a35.84 35.84 0 0 1 0 71.552z" fill="#1196db" p-id="53580"></path><path d="M775.552 904.384a35.84 35.84 0 0 1-35.776-35.776v-223.232a35.84 35.84 0 0 1 71.552 0v223.168a35.84 35.84 0 0 1-35.776 35.84zM562.112 777.728c0-24.256 4.736-47.296 11.52-69.312h-178.56a35.2 35.2 0 1 1 0-70.4h213.76a234.688 234.688 0 0 1 181.376-95.488V190.016c0-38.72-31.68-70.4-70.4-70.4H171.456c-38.72 0-70.4 31.68-70.4 70.4v598.208c0 38.72 31.68 70.4 70.4 70.4H577.28a232.832 232.832 0 0 1-15.168-80.896z m-167.04-507.776h283.008a35.2 35.2 0 1 1 0 70.4H395.072a35.2 35.2 0 1 1 0-70.4z m0 184h283.008a35.2 35.2 0 1 1 0 70.4H395.072a35.2 35.2 0 1 1 0-70.4z m-138.88 262.144a42.88 42.88 0 1 1-0.064-85.76 42.88 42.88 0 0 1 0.064 85.76z m0-184.064a42.88 42.88 0 1 1-0.064-85.76 42.88 42.88 0 0 1 0.064 85.76z m0-183.936a42.88 42.88 0 1 1-0.064-85.76 42.88 42.88 0 0 1 0.064 85.76z" fill="#1196db" p-id="53581"></path></svg>